<!DOCTYPE svg PUBLIC "-//W3C//DTD SVG 1.1//EN" "http://www.w3.org/Graphics/SVG/1.1/DTD/svg11.dtd">
<!-- Uploaded to: SVG Repo, www.svgrepo.com, Transformed by: SVG Repo Mixer Tools -->
<svg width="64px" height="64px" viewBox="0 0 1024 1024" class="icon" version="1.1" xmlns="http://www.w3.org/2000/svg" fill="#000000">
<g id="SVGRepo_bgCarrier" stroke-width="0"/>
<g id="SVGRepo_tracerCarrier" stroke-linecap="round" stroke-linejoin="round"/>
<g id="SVGRepo_iconCarrier">
<path d="M247.872 289.344m-86.528 0a86.528 86.528 0 1 0 173.056 0 86.528 86.528 0 1 0-173.056 0Z" fill="#76ACDD"/>
<path d="M227.456 610.304V532.992s96.64 118.208 237.056-66.56c0 0 34.368-44.544-71.808-34.048 0 0-27.52 123.2-165.248 0 0 0 23.68-17.088-90.432-20.992 0 0-73.792 118.72-72.256 198.976h178.496" fill="#276CB5"/>
<path d="M411.56749 554.060639a24.448 86.912 33.175 1 0 95.116156-145.491236 24.448 86.912 33.175 1 0-95.116156 145.491236Z" fill="#44575F"/>
<path d="M473.18969 492.565085a30.976 24.448 49.917 1 0 39.890685 47.400249 30.976 24.448 49.917 1 0-39.890685-47.400249Z" fill="#44575F"/>
<path d="M56.64 602.432v232c508.16 0 920.192-103.808 920.192-232H56.64z" fill="#A8D1ED"/>
<path d="M818.944 604.224l0.832-0.832-259.456-117.696-114.048 118.528z" fill="#5C9BD4"/>
</g>
</svg>